<mxfile host="app.diagrams.net" modified="2022-02-27T09:47:10.743Z" agent="5.0 (Macintosh; Intel Mac OS X 10_15_7) AppleWebKit/537.36 (KHTML, like Gecko) Chrome/98.0.4758.109 Safari/537.36" etag="ojb6gNQOWvCVkEURtIzI" version="16.6.4" type="github">
  <diagram id="CHrgQ5leZ1LItxzOST3N" name="Page-1">
    <mxGraphModel dx="2015" dy="641" grid="1" gridSize="10" guides="1" tooltips="1" connect="1" arrows="1" fold="1" page="1" pageScale="1" pageWidth="827" pageHeight="1169" math="0" shadow="0">
      <root>
        <mxCell id="0" />
        <mxCell id="1" parent="0" />
        <mxCell id="Qecz2ClUhUotp8jwRQd2-11" style="edgeStyle=orthogonalEdgeStyle;rounded=0;orthogonalLoop=1;jettySize=auto;html=1;entryX=0;entryY=0.5;entryDx=0;entryDy=0;" parent="1" source="Qecz2ClUhUotp8jwRQd2-1" target="Qecz2ClUhUotp8jwRQd2-2" edge="1">
          <mxGeometry relative="1" as="geometry" />
        </mxCell>
        <mxCell id="Qecz2ClUhUotp8jwRQd2-1" value="tiger" style="rounded=0;whiteSpace=wrap;html=1;" parent="1" vertex="1">
          <mxGeometry x="-520" y="340" width="120" height="60" as="geometry" />
        </mxCell>
        <mxCell id="Qecz2ClUhUotp8jwRQd2-12" style="edgeStyle=orthogonalEdgeStyle;rounded=0;orthogonalLoop=1;jettySize=auto;html=1;exitX=1;exitY=0.5;exitDx=0;exitDy=0;entryX=0;entryY=0.5;entryDx=0;entryDy=0;" parent="1" source="Qecz2ClUhUotp8jwRQd2-2" target="Qecz2ClUhUotp8jwRQd2-3" edge="1">
          <mxGeometry relative="1" as="geometry" />
        </mxCell>
        <mxCell id="Qecz2ClUhUotp8jwRQd2-14" style="edgeStyle=orthogonalEdgeStyle;rounded=0;orthogonalLoop=1;jettySize=auto;html=1;exitX=1;exitY=0.5;exitDx=0;exitDy=0;entryX=0;entryY=0.5;entryDx=0;entryDy=0;" parent="1" source="Qecz2ClUhUotp8jwRQd2-2" target="Qecz2ClUhUotp8jwRQd2-4" edge="1">
          <mxGeometry relative="1" as="geometry" />
        </mxCell>
        <mxCell id="Qecz2ClUhUotp8jwRQd2-16" style="edgeStyle=orthogonalEdgeStyle;rounded=0;orthogonalLoop=1;jettySize=auto;html=1;exitX=1;exitY=0.5;exitDx=0;exitDy=0;entryX=0;entryY=0.5;entryDx=0;entryDy=0;" parent="1" source="Qecz2ClUhUotp8jwRQd2-2" target="Qecz2ClUhUotp8jwRQd2-5" edge="1">
          <mxGeometry relative="1" as="geometry" />
        </mxCell>
        <mxCell id="Qecz2ClUhUotp8jwRQd2-2" value="" style="rounded=0;whiteSpace=wrap;html=1;" parent="1" vertex="1">
          <mxGeometry x="-350" y="220" width="190" height="300" as="geometry" />
        </mxCell>
        <mxCell id="Qecz2ClUhUotp8jwRQd2-3" value="ES" style="rounded=0;whiteSpace=wrap;html=1;" parent="1" vertex="1">
          <mxGeometry x="-50" y="240" width="120" height="60" as="geometry" />
        </mxCell>
        <mxCell id="Qecz2ClUhUotp8jwRQd2-4" value="CAT" style="rounded=0;whiteSpace=wrap;html=1;" parent="1" vertex="1">
          <mxGeometry x="-50" y="340" width="120" height="60" as="geometry" />
        </mxCell>
        <mxCell id="Qecz2ClUhUotp8jwRQd2-5" value="Oreo Client" style="rounded=0;whiteSpace=wrap;html=1;" parent="1" vertex="1">
          <mxGeometry x="-50" y="450" width="120" height="60" as="geometry" />
        </mxCell>
        <mxCell id="Qecz2ClUhUotp8jwRQd2-22" style="edgeStyle=orthogonalEdgeStyle;rounded=0;orthogonalLoop=1;jettySize=auto;html=1;exitX=0;exitY=0.5;exitDx=0;exitDy=0;" parent="1" source="Qecz2ClUhUotp8jwRQd2-6" target="Qecz2ClUhUotp8jwRQd2-3" edge="1">
          <mxGeometry relative="1" as="geometry" />
        </mxCell>
        <mxCell id="Qecz2ClUhUotp8jwRQd2-6" value="奥利匹克系统" style="rounded=0;whiteSpace=wrap;html=1;" parent="1" vertex="1">
          <mxGeometry x="174" y="240" width="120" height="60" as="geometry" />
        </mxCell>
        <mxCell id="Qecz2ClUhUotp8jwRQd2-23" style="edgeStyle=orthogonalEdgeStyle;rounded=0;orthogonalLoop=1;jettySize=auto;html=1;" parent="1" source="Qecz2ClUhUotp8jwRQd2-7" target="Qecz2ClUhUotp8jwRQd2-4" edge="1">
          <mxGeometry relative="1" as="geometry" />
        </mxCell>
        <mxCell id="Qecz2ClUhUotp8jwRQd2-7" value="monitor" style="rounded=0;whiteSpace=wrap;html=1;" parent="1" vertex="1">
          <mxGeometry x="174" y="340" width="120" height="60" as="geometry" />
        </mxCell>
        <mxCell id="Qecz2ClUhUotp8jwRQd2-18" value="" style="edgeStyle=orthogonalEdgeStyle;rounded=0;orthogonalLoop=1;jettySize=auto;html=1;" parent="1" source="Qecz2ClUhUotp8jwRQd2-8" target="Qecz2ClUhUotp8jwRQd2-9" edge="1">
          <mxGeometry relative="1" as="geometry" />
        </mxCell>
        <mxCell id="Qecz2ClUhUotp8jwRQd2-8" value="tiger" style="rounded=0;whiteSpace=wrap;html=1;" parent="1" vertex="1">
          <mxGeometry x="-310" y="780" width="120" height="60" as="geometry" />
        </mxCell>
        <mxCell id="Qecz2ClUhUotp8jwRQd2-19" value="" style="edgeStyle=orthogonalEdgeStyle;rounded=0;orthogonalLoop=1;jettySize=auto;html=1;" parent="1" source="Qecz2ClUhUotp8jwRQd2-9" target="Qecz2ClUhUotp8jwRQd2-10" edge="1">
          <mxGeometry relative="1" as="geometry" />
        </mxCell>
        <mxCell id="Qecz2ClUhUotp8jwRQd2-9" value="filnk" style="rounded=0;whiteSpace=wrap;html=1;" parent="1" vertex="1">
          <mxGeometry x="-140" y="780" width="120" height="60" as="geometry" />
        </mxCell>
        <mxCell id="Qecz2ClUhUotp8jwRQd2-10" value="InfluxDB" style="rounded=0;whiteSpace=wrap;html=1;" parent="1" vertex="1">
          <mxGeometry x="40" y="780" width="120" height="60" as="geometry" />
        </mxCell>
        <mxCell id="GQiWsAskLN4Fh5y-KPG--1" style="edgeStyle=orthogonalEdgeStyle;rounded=0;orthogonalLoop=1;jettySize=auto;html=1;" edge="1" parent="1" source="Qecz2ClUhUotp8jwRQd2-20" target="Qecz2ClUhUotp8jwRQd2-5">
          <mxGeometry relative="1" as="geometry" />
        </mxCell>
        <mxCell id="Qecz2ClUhUotp8jwRQd2-20" value="奥利奥系统" style="rounded=0;whiteSpace=wrap;html=1;" parent="1" vertex="1">
          <mxGeometry x="174" y="450" width="120" height="60" as="geometry" />
        </mxCell>
        <mxCell id="GQiWsAskLN4Fh5y-KPG--8" value="" style="edgeStyle=orthogonalEdgeStyle;rounded=0;orthogonalLoop=1;jettySize=auto;html=1;" edge="1" parent="1" source="GQiWsAskLN4Fh5y-KPG--2" target="GQiWsAskLN4Fh5y-KPG--6">
          <mxGeometry relative="1" as="geometry" />
        </mxCell>
        <mxCell id="GQiWsAskLN4Fh5y-KPG--2" value="query ad data" style="rounded=0;whiteSpace=wrap;html=1;" vertex="1" parent="1">
          <mxGeometry x="-320" y="260" width="120" height="60" as="geometry" />
        </mxCell>
        <mxCell id="GQiWsAskLN4Fh5y-KPG--5" value="ad-biz-nolan-api" style="text;html=1;strokeColor=none;fillColor=none;align=center;verticalAlign=middle;whiteSpace=wrap;rounded=0;" vertex="1" parent="1">
          <mxGeometry x="-350" y="230" width="120" height="30" as="geometry" />
        </mxCell>
        <mxCell id="GQiWsAskLN4Fh5y-KPG--9" value="" style="edgeStyle=orthogonalEdgeStyle;rounded=0;orthogonalLoop=1;jettySize=auto;html=1;" edge="1" parent="1" source="GQiWsAskLN4Fh5y-KPG--6" target="GQiWsAskLN4Fh5y-KPG--7">
          <mxGeometry relative="1" as="geometry" />
        </mxCell>
        <mxCell id="GQiWsAskLN4Fh5y-KPG--6" value="rule validator" style="rounded=0;whiteSpace=wrap;html=1;" vertex="1" parent="1">
          <mxGeometry x="-320" y="350" width="120" height="60" as="geometry" />
        </mxCell>
        <mxCell id="GQiWsAskLN4Fh5y-KPG--7" value="sender" style="rounded=0;whiteSpace=wrap;html=1;" vertex="1" parent="1">
          <mxGeometry x="-320" y="440" width="120" height="60" as="geometry" />
        </mxCell>
        <mxCell id="GQiWsAskLN4Fh5y-KPG--19" value="" style="edgeStyle=orthogonalEdgeStyle;rounded=0;orthogonalLoop=1;jettySize=auto;html=1;" edge="1" parent="1" source="GQiWsAskLN4Fh5y-KPG--10" target="Qecz2ClUhUotp8jwRQd2-8">
          <mxGeometry relative="1" as="geometry" />
        </mxCell>
        <mxCell id="GQiWsAskLN4Fh5y-KPG--10" value="oreo- client" style="rounded=0;whiteSpace=wrap;html=1;" vertex="1" parent="1">
          <mxGeometry x="-440" y="620" width="80" height="380" as="geometry" />
        </mxCell>
        <mxCell id="GQiWsAskLN4Fh5y-KPG--15" value="" style="edgeStyle=orthogonalEdgeStyle;rounded=0;orthogonalLoop=1;jettySize=auto;html=1;" edge="1" parent="1" source="GQiWsAskLN4Fh5y-KPG--11" target="GQiWsAskLN4Fh5y-KPG--10">
          <mxGeometry relative="1" as="geometry" />
        </mxCell>
        <mxCell id="GQiWsAskLN4Fh5y-KPG--11" value="ad-biz-nolan-api" style="rounded=0;whiteSpace=wrap;html=1;" vertex="1" parent="1">
          <mxGeometry x="-640" y="620" width="120" height="40" as="geometry" />
        </mxCell>
        <mxCell id="GQiWsAskLN4Fh5y-KPG--16" style="edgeStyle=orthogonalEdgeStyle;rounded=0;orthogonalLoop=1;jettySize=auto;html=1;exitX=1;exitY=0.5;exitDx=0;exitDy=0;" edge="1" parent="1" source="GQiWsAskLN4Fh5y-KPG--12">
          <mxGeometry relative="1" as="geometry">
            <mxPoint x="-440" y="810" as="targetPoint" />
            <Array as="points">
              <mxPoint x="-480" y="750" />
              <mxPoint x="-480" y="810" />
            </Array>
          </mxGeometry>
        </mxCell>
        <mxCell id="GQiWsAskLN4Fh5y-KPG--12" value="ad-biz-echo-api" style="rounded=0;whiteSpace=wrap;html=1;" vertex="1" parent="1">
          <mxGeometry x="-640" y="730" width="120" height="40" as="geometry" />
        </mxCell>
        <mxCell id="GQiWsAskLN4Fh5y-KPG--17" style="edgeStyle=orthogonalEdgeStyle;rounded=0;orthogonalLoop=1;jettySize=auto;html=1;exitX=1;exitY=0.5;exitDx=0;exitDy=0;" edge="1" parent="1" source="GQiWsAskLN4Fh5y-KPG--13">
          <mxGeometry relative="1" as="geometry">
            <mxPoint x="-440" y="810" as="targetPoint" />
            <Array as="points">
              <mxPoint x="-480" y="880" />
              <mxPoint x="-480" y="810" />
            </Array>
          </mxGeometry>
        </mxCell>
        <mxCell id="GQiWsAskLN4Fh5y-KPG--13" value="ad-geodude-api" style="rounded=0;whiteSpace=wrap;html=1;" vertex="1" parent="1">
          <mxGeometry x="-640" y="860" width="120" height="40" as="geometry" />
        </mxCell>
        <mxCell id="GQiWsAskLN4Fh5y-KPG--18" style="edgeStyle=orthogonalEdgeStyle;rounded=0;orthogonalLoop=1;jettySize=auto;html=1;exitX=1;exitY=0.5;exitDx=0;exitDy=0;entryX=0;entryY=0.5;entryDx=0;entryDy=0;" edge="1" parent="1" source="GQiWsAskLN4Fh5y-KPG--14" target="GQiWsAskLN4Fh5y-KPG--10">
          <mxGeometry relative="1" as="geometry" />
        </mxCell>
        <mxCell id="GQiWsAskLN4Fh5y-KPG--14" value="..." style="rounded=0;whiteSpace=wrap;html=1;" vertex="1" parent="1">
          <mxGeometry x="-640" y="960" width="120" height="40" as="geometry" />
        </mxCell>
        <mxCell id="GQiWsAskLN4Fh5y-KPG--21" value="" style="edgeStyle=orthogonalEdgeStyle;rounded=0;orthogonalLoop=1;jettySize=auto;html=1;" edge="1" parent="1" source="GQiWsAskLN4Fh5y-KPG--20" target="Qecz2ClUhUotp8jwRQd2-10">
          <mxGeometry relative="1" as="geometry" />
        </mxCell>
        <mxCell id="GQiWsAskLN4Fh5y-KPG--20" value="奥利奥系统" style="rounded=0;whiteSpace=wrap;html=1;" vertex="1" parent="1">
          <mxGeometry x="40" y="630" width="120" height="60" as="geometry" />
        </mxCell>
      </root>
    </mxGraphModel>
  </diagram>
</mxfile>
